<?xml version="1.0" encoding="utf-8"?>
<!-- Generator: Adobe Illustrator 27.0.0, SVG Export Plug-In . SVG Version: 6.00 Build 0)  -->
<svg version="1.1" id="Layer_1" xmlns="http://www.w3.org/2000/svg" xmlns:xlink="http://www.w3.org/1999/xlink" x="0px" y="0px"
	 viewBox="0 0 512 512" style="enable-background:new 0 0 512 512;" xml:space="preserve">
<style type="text/css">
	.st0{fill:#005288;}
	.st1{fill:#A7A9AC;}
</style>
<g id="XMLID_1_">
	<path id="XMLID_5_" class="st0" d="M119.36,247.68H76.01l-1.54,1.26v38.58h11.93v-14.45l1.12-0.98h31.71c8,0,11.79-2.1,11.79-7.72
		v-8.84C131.15,249.93,127.36,247.68,119.36,247.68 M119.36,261.99c0,2.67-1.68,3.09-5.47,3.09H87.65l-1.26-1.26v-8.28l1.12-0.98
		h26.24c3.79,0,5.47,0.56,5.47,3.23v4.21H119.36z"/>
	<polyline id="XMLID_6_" class="st0" points="152.89,254.98 163.28,270.13 162.72,271.67 139.85,271.67 134.09,278.83 
		168.05,278.83 170.43,280.23 175.62,287.53 189.38,287.53 159.35,247.26 	"/>
	<polyline id="XMLID_7_" class="st0" points="289.42,279.67 289.42,269.01 290.54,267.89 313.55,267.89 313.55,261.15 
		277.21,261.15 277.21,287.53 330.81,287.53 330.81,280.65 290.68,280.65 	"/>
	<rect id="XMLID_8_" x="277.21" y="247.68" class="st0" width="54.16" height="7.44"/>
	<path id="XMLID_9_" class="st0" d="M216.74,254.84h43.64c-0.7-5.61-4.07-7.16-12.91-7.16h-31.29c-9.82,0-13.05,1.96-13.05,9.4
		v20.91c0,7.44,3.09,9.4,13.05,9.4h31.29c8.84,0,12.21-1.68,12.49-7.44h-43.22l-1.26-1.26v-23.15"/>
	<path id="XMLID_10_" class="st0" d="M45.28,263.26H13.43l-0.98-0.98v-6.73l0.98-0.7h42.79l0.56-1.4c-1.4-3.79-5.19-5.47-12.21-5.47
		H14.83c-9.82,0-13.05,1.96-13.05,9.4v4.35c0,7.44,3.09,9.4,13.05,9.4h31.71l0.98,0.84v7.16l-0.84,1.12h-36.2l0,0H0.94
		c0,0-1.12,0.56-0.98,0.84c0.84,5.19,4.35,6.73,12.91,6.73h32.41c9.82,0,13.05-1.96,13.05-9.4v-5.47
		C58.33,265.08,55.1,263.26,45.28,263.26"/>
	<path id="XMLID_11_" class="st0" d="M365.46,247.54h-17.82l-0.98,1.82l19.78,14.45c3.79-2.1,7.86-4.35,12.21-6.59"/>
	<path id="XMLID_12_" class="st0" d="M381.46,274.76l17.4,12.63h18.1l0.7-1.68l-25.96-19.08
		C388.19,269.29,384.83,271.95,381.46,274.76"/>
	<path id="XMLID_13_" class="st1" d="M362.8,287.39h-16.14l-1.4-2.1c10.94-10.66,60.05-55.98,166.69-60.89
		C512.09,224.39,422.57,227.48,362.8,287.39"/>
</g>
</svg>
